G75*
%MOIN*%
%OFA0B0*%
%FSLAX26Y26*%
%IPPOS*%
%LPD*%
%AMOC8*
5,1,8,0,0,1.08239X$1,22.5*
%
%ADD10R,0.393701X0.078740*%
%ADD11R,0.080000X0.026000*%
%ADD12C,0.055433*%
%ADD13R,0.055433X0.055433*%
%ADD14C,0.200000*%
%ADD15OC8,0.039622*%
%ADD16C,0.016000*%
%ADD17C,0.012000*%
%ADD18C,0.010000*%
D10*
X00196268Y00446362D03*
X00196268Y00555417D03*
X00196268Y00664472D03*
X00196268Y00773528D03*
X00196268Y00882583D03*
X00196268Y00991638D03*
X00196268Y01100693D03*
X00196268Y01209748D03*
X00196268Y01318803D03*
X00196268Y01427858D03*
X00196268Y01536913D03*
D11*
X00479000Y01250000D03*
X00479000Y01200000D03*
X00479000Y01150000D03*
X00479000Y01100000D03*
X00479000Y01050000D03*
X00479000Y01000000D03*
X00479000Y00950000D03*
X00721000Y00950000D03*
X00721000Y01000000D03*
X00721000Y01050000D03*
X00721000Y01100000D03*
X00721000Y01150000D03*
X00721000Y01200000D03*
X00721000Y01250000D03*
D12*
X00950000Y01080433D03*
X00950000Y00990433D03*
X00950000Y00900433D03*
X00950000Y00810433D03*
X01050000Y00855433D03*
X01050000Y00945433D03*
X01150000Y00900433D03*
X01150000Y00810433D03*
X01150000Y00990433D03*
X01050000Y01035433D03*
X01050000Y01125433D03*
X01150000Y01080433D03*
X01150000Y01170433D03*
X01050000Y01215433D03*
D13*
X00950000Y01170433D03*
D14*
X01050000Y01492929D03*
X01050000Y00508677D03*
D15*
X00837500Y00537500D03*
X00692126Y00392126D03*
X00612500Y00550000D03*
X00500000Y00550000D03*
X00462500Y00762500D03*
X00725000Y00837500D03*
X00800000Y01062500D03*
D16*
X00537500Y00000000D02*
X00000000Y00000000D01*
X00000000Y00359622D01*
X00402541Y00359622D01*
X00419951Y00366834D01*
X00433276Y00380159D01*
X00440099Y00396630D01*
X00535616Y00396630D01*
X00555232Y00404755D01*
X00570245Y00419768D01*
X00607745Y00457268D01*
X00615870Y00476884D01*
X00615870Y00482819D01*
X00640327Y00482819D01*
X00679681Y00522173D01*
X00679681Y00577827D01*
X00665870Y00591638D01*
X00665870Y00927206D01*
X00666596Y00925948D01*
X00669948Y00922596D01*
X00674052Y00920227D01*
X00678630Y00919000D01*
X00720999Y00919000D01*
X00720999Y00939630D01*
X00721000Y00939630D01*
X00721000Y00919000D01*
X00747630Y00919000D01*
X00747630Y00689583D01*
X00755603Y00670335D01*
X00770335Y00655603D01*
X00789583Y00647630D01*
X01310417Y00647630D01*
X01329665Y00655603D01*
X01344397Y00670335D01*
X01352370Y00689583D01*
X01352370Y00910417D01*
X01344397Y00929665D01*
X01329665Y00944397D01*
X01310417Y00952370D01*
X01221860Y00952370D01*
X01229665Y00955603D01*
X01244397Y00970335D01*
X01344397Y01070335D01*
X01352370Y01089583D01*
X01352370Y01210417D01*
X01344397Y01229665D01*
X01229665Y01344397D01*
X01210417Y01352370D01*
X00889583Y01352370D01*
X00870335Y01344397D01*
X00855603Y01329665D01*
X00805438Y01279500D01*
X00801158Y01289833D01*
X00787833Y01303158D01*
X00770422Y01310370D01*
X00671577Y01310370D01*
X00654167Y01303158D01*
X00640842Y01289833D01*
X00633630Y01272422D01*
X00633630Y01253370D01*
X00626884Y01253370D01*
X00611206Y01246876D01*
X00607745Y01255232D01*
X00592732Y01270245D01*
X00567732Y01295245D01*
X00548116Y01303370D01*
X00545322Y01303370D01*
X00528422Y01310370D01*
X00440488Y01310370D01*
X00440488Y01367596D01*
X00438112Y01373331D01*
X00440488Y01379066D01*
X00440488Y01476651D01*
X00438112Y01482386D01*
X00440488Y01488121D01*
X00440488Y01585706D01*
X00433276Y01603116D01*
X00419951Y01616442D01*
X00402541Y01623653D01*
X00000000Y01623653D01*
X00000000Y01975000D01*
X00512500Y01975000D01*
X00812500Y01675000D01*
X01512500Y01675000D01*
X01512500Y00312500D01*
X00850000Y00312500D01*
X00537500Y00000000D01*
X00000000Y00000000D01*
X00000000Y00015999D02*
X00553499Y00015999D01*
X00569497Y00031997D02*
X00000000Y00031997D01*
X00000000Y00047996D02*
X00585496Y00047996D01*
X00601494Y00063994D02*
X00000000Y00063994D01*
X00000000Y00079993D02*
X00617493Y00079993D01*
X00633491Y00095991D02*
X00000000Y00095991D01*
X00000000Y00111990D02*
X00649490Y00111990D01*
X00665488Y00127988D02*
X00000000Y00127988D01*
X00000000Y00143987D02*
X00681487Y00143987D01*
X00697485Y00159985D02*
X00000000Y00159985D01*
X00000000Y00175984D02*
X00713484Y00175984D01*
X00729482Y00191982D02*
X00000000Y00191982D01*
X00000000Y00207981D02*
X00745481Y00207981D01*
X00761479Y00223979D02*
X00000000Y00223979D01*
X00000000Y00239978D02*
X00777478Y00239978D01*
X00793476Y00255976D02*
X00000000Y00255976D01*
X00000000Y00271975D02*
X00809475Y00271975D01*
X00825473Y00287973D02*
X00000000Y00287973D01*
X00000000Y00303972D02*
X00841472Y00303972D01*
X00759307Y00364299D02*
X00759307Y00383830D01*
X00845796Y00470319D01*
X00865327Y00470319D01*
X00904681Y00509673D01*
X00904681Y00565327D01*
X00865327Y00604681D01*
X00809673Y00604681D01*
X00770319Y00565327D01*
X00770319Y00545796D01*
X00683830Y00459307D01*
X00664299Y00459307D01*
X00624945Y00419953D01*
X00624945Y00364299D01*
X00664299Y00324945D01*
X00719953Y00324945D01*
X00759307Y00364299D01*
X00759307Y00367966D02*
X01512500Y00367966D01*
X01512500Y00383965D02*
X00759441Y00383965D01*
X00775440Y00399963D02*
X01003785Y00399963D01*
X01004772Y00399488D02*
X01017282Y00395110D01*
X01030203Y00392161D01*
X01042000Y00390832D01*
X01042000Y00500677D01*
X01058000Y00500677D01*
X01058000Y00516677D01*
X01167845Y00516677D01*
X01166516Y00528474D01*
X01163567Y00541395D01*
X01159189Y00553905D01*
X01153439Y00565846D01*
X01146388Y00577068D01*
X01138124Y00587430D01*
X01128753Y00596801D01*
X01118391Y00605065D01*
X01107169Y00612116D01*
X01095228Y00617867D01*
X01082718Y00622244D01*
X01069797Y00625193D01*
X01058000Y00626522D01*
X01058000Y00516678D01*
X01042000Y00516678D01*
X01042000Y00626522D01*
X01030203Y00625193D01*
X01017282Y00622244D01*
X01004772Y00617867D01*
X00992831Y00612116D01*
X00981609Y00605065D01*
X00971247Y00596801D01*
X00961876Y00587430D01*
X00953612Y00577068D01*
X00946561Y00565846D01*
X00940810Y00553905D01*
X00936433Y00541395D01*
X00933484Y00528474D01*
X00932155Y00516677D01*
X01041999Y00516677D01*
X01041999Y00500677D01*
X00932155Y00500677D01*
X00933484Y00488880D01*
X00936433Y00475959D01*
X00940810Y00463449D01*
X00946561Y00451508D01*
X00953612Y00440286D01*
X00961876Y00429924D01*
X00971247Y00420553D01*
X00981609Y00412289D01*
X00992831Y00405238D01*
X01004772Y00399488D01*
X00977004Y00415962D02*
X00791438Y00415962D01*
X00807437Y00431960D02*
X00960252Y00431960D01*
X00948791Y00447959D02*
X00823435Y00447959D01*
X00839434Y00463957D02*
X00940633Y00463957D01*
X00935521Y00479956D02*
X00874964Y00479956D01*
X00890963Y00495954D02*
X00932687Y00495954D01*
X00933425Y00527951D02*
X00904681Y00527951D01*
X00904681Y00511953D02*
X01041999Y00511953D01*
X01042000Y00527951D02*
X01058000Y00527951D01*
X01058000Y00511953D02*
X01512500Y00511953D01*
X01512500Y00527951D02*
X01166575Y00527951D01*
X01162673Y00543950D02*
X01512500Y00543950D01*
X01512500Y00559948D02*
X01156279Y00559948D01*
X01147092Y00575947D02*
X01512500Y00575947D01*
X01512500Y00591945D02*
X01133609Y00591945D01*
X01113809Y00607944D02*
X01512500Y00607944D01*
X01512500Y00623942D02*
X01075277Y00623942D01*
X01058000Y00623942D02*
X01042000Y00623942D01*
X01042000Y00607944D02*
X01058000Y00607944D01*
X01058000Y00591945D02*
X01042000Y00591945D01*
X01042000Y00575947D02*
X01058000Y00575947D01*
X01058000Y00559948D02*
X01042000Y00559948D01*
X01042000Y00543950D02*
X01058000Y00543950D01*
X01058000Y00500677D02*
X01167845Y00500677D01*
X01166516Y00488880D01*
X01163567Y00475959D01*
X01159189Y00463449D01*
X01153439Y00451508D01*
X01146388Y00440286D01*
X01138124Y00429924D01*
X01128753Y00420553D01*
X01118391Y00412289D01*
X01107169Y00405238D01*
X01095228Y00399488D01*
X01082718Y00395110D01*
X01069797Y00392161D01*
X01058000Y00390832D01*
X01058000Y00500677D01*
X01058000Y00495954D02*
X01042000Y00495954D01*
X01042000Y00479956D02*
X01058000Y00479956D01*
X01058000Y00463957D02*
X01042000Y00463957D01*
X01042000Y00447959D02*
X01058000Y00447959D01*
X01058000Y00431960D02*
X01042000Y00431960D01*
X01042000Y00415962D02*
X01058000Y00415962D01*
X01058000Y00399963D02*
X01042000Y00399963D01*
X01096215Y00399963D02*
X01512500Y00399963D01*
X01512500Y00415962D02*
X01122996Y00415962D01*
X01139748Y00431960D02*
X01512500Y00431960D01*
X01512500Y00447959D02*
X01151209Y00447959D01*
X01159367Y00463957D02*
X01512500Y00463957D01*
X01512500Y00479956D02*
X01164479Y00479956D01*
X01167313Y00495954D02*
X01512500Y00495954D01*
X01512500Y00351968D02*
X00746976Y00351968D01*
X00730977Y00335969D02*
X01512500Y00335969D01*
X01512500Y00319970D02*
X00000000Y00319970D01*
X00000000Y00335969D02*
X00653274Y00335969D01*
X00637276Y00351968D02*
X00000000Y00351968D01*
X00421083Y00367966D02*
X00624945Y00367966D01*
X00624945Y00383965D02*
X00434853Y00383965D01*
X00543663Y00399963D02*
X00624945Y00399963D01*
X00624945Y00415962D02*
X00566438Y00415962D01*
X00582437Y00431960D02*
X00636952Y00431960D01*
X00652950Y00447959D02*
X00598435Y00447959D01*
X00610515Y00463957D02*
X00688481Y00463957D01*
X00704479Y00479956D02*
X00615870Y00479956D01*
X00653463Y00495954D02*
X00720478Y00495954D01*
X00736476Y00511953D02*
X00669461Y00511953D01*
X00679681Y00527951D02*
X00752475Y00527951D01*
X00768473Y00543950D02*
X00679681Y00543950D01*
X00679681Y00559948D02*
X00770319Y00559948D01*
X00780938Y00575947D02*
X00679681Y00575947D01*
X00665870Y00591945D02*
X00796937Y00591945D01*
X00769998Y00655939D02*
X00665870Y00655939D01*
X00665870Y00639941D02*
X01512500Y00639941D01*
X01512500Y00655939D02*
X01330002Y00655939D01*
X01345061Y00671938D02*
X01512500Y00671938D01*
X01512500Y00687937D02*
X01351688Y00687937D01*
X01352370Y00703935D02*
X01512500Y00703935D01*
X01512500Y00719934D02*
X01352370Y00719934D01*
X01352370Y00735932D02*
X01512500Y00735932D01*
X01512500Y00751931D02*
X01352370Y00751931D01*
X01352370Y00767929D02*
X01512500Y00767929D01*
X01512500Y00783928D02*
X01352370Y00783928D01*
X01352370Y00799926D02*
X01512500Y00799926D01*
X01512500Y00815925D02*
X01352370Y00815925D01*
X01352370Y00831923D02*
X01512500Y00831923D01*
X01512500Y00847922D02*
X01352370Y00847922D01*
X01352370Y00863920D02*
X01512500Y00863920D01*
X01512500Y00879919D02*
X01352370Y00879919D01*
X01352370Y00895917D02*
X01512500Y00895917D01*
X01512500Y00911916D02*
X01351749Y00911916D01*
X01345122Y00927914D02*
X01512500Y00927914D01*
X01512500Y00943913D02*
X01330149Y00943913D01*
X01281969Y01007907D02*
X01512500Y01007907D01*
X01512500Y00991908D02*
X01265971Y00991908D01*
X01249972Y00975910D02*
X01512500Y00975910D01*
X01512500Y00959911D02*
X01233974Y00959911D01*
X01244397Y00970335D02*
X01244397Y00970335D01*
X01297968Y01023906D02*
X01512500Y01023906D01*
X01512500Y01039904D02*
X01313966Y01039904D01*
X01329965Y01055903D02*
X01512500Y01055903D01*
X01512500Y01071901D02*
X01345046Y01071901D01*
X01351673Y01087900D02*
X01512500Y01087900D01*
X01512500Y01103898D02*
X01352370Y01103898D01*
X01352370Y01119897D02*
X01512500Y01119897D01*
X01512500Y01135895D02*
X01352370Y01135895D01*
X01352370Y01151894D02*
X01512500Y01151894D01*
X01512500Y01167892D02*
X01352370Y01167892D01*
X01352370Y01183891D02*
X01512500Y01183891D01*
X01512500Y01199889D02*
X01352370Y01199889D01*
X01350104Y01215888D02*
X01512500Y01215888D01*
X01512500Y01231886D02*
X01342176Y01231886D01*
X01326178Y01247885D02*
X01512500Y01247885D01*
X01512500Y01263883D02*
X01310179Y01263883D01*
X01294180Y01279882D02*
X01512500Y01279882D01*
X01512500Y01295880D02*
X01278182Y01295880D01*
X01262183Y01311879D02*
X01512500Y01311879D01*
X01512500Y01327877D02*
X01246185Y01327877D01*
X01230186Y01343876D02*
X01512500Y01343876D01*
X01512500Y01359875D02*
X00440488Y01359875D01*
X00440488Y01343876D02*
X00869813Y01343876D01*
X00853815Y01327877D02*
X00440488Y01327877D01*
X00440488Y01311879D02*
X00837817Y01311879D01*
X00821818Y01295880D02*
X00795111Y01295880D01*
X00805280Y01279882D02*
X00805820Y01279882D01*
X00874913Y01200851D02*
X00874913Y01133294D01*
X00882125Y01115883D01*
X00883034Y01114974D01*
X00874913Y01095369D01*
X00874913Y01065497D01*
X00886345Y01037900D01*
X00888812Y01035433D01*
X00886345Y01032966D01*
X00874913Y01005369D01*
X00874913Y00975497D01*
X00886345Y00947900D01*
X00888812Y00945433D01*
X00886345Y00942966D01*
X00874913Y00915369D01*
X00874913Y00885497D01*
X00886345Y00857900D01*
X00907467Y00836778D01*
X00911437Y00835133D01*
X00910900Y00834394D01*
X00907633Y00827982D01*
X00905409Y00821138D01*
X00904283Y00814031D01*
X00904283Y00811291D01*
X00949141Y00811291D01*
X00949141Y00809575D01*
X00904283Y00809575D01*
X00904283Y00806835D01*
X00905409Y00799728D01*
X00907633Y00792884D01*
X00910900Y00786472D01*
X00915129Y00780651D01*
X00920218Y00775562D01*
X00926039Y00771333D01*
X00932451Y00768066D01*
X00939295Y00765842D01*
X00946402Y00764717D01*
X00949141Y00764717D01*
X00949141Y00809574D01*
X00950858Y00809574D01*
X00950858Y00764717D01*
X00953598Y00764717D01*
X00960705Y00765842D01*
X00967549Y00768066D01*
X00973961Y00771333D01*
X00979782Y00775562D01*
X00984871Y00780651D01*
X00989100Y00786472D01*
X00992367Y00792884D01*
X00994591Y00799728D01*
X00995716Y00806835D01*
X00995716Y00809575D01*
X00950859Y00809575D01*
X00950859Y00811291D01*
X00995716Y00811291D01*
X00995716Y00814031D01*
X00994591Y00821138D01*
X00992367Y00827982D01*
X00989100Y00834394D01*
X00988563Y00835133D01*
X00992533Y00836778D01*
X01004736Y00848980D01*
X01005409Y00844728D01*
X01007633Y00837884D01*
X01010900Y00831472D01*
X01015129Y00825651D01*
X01020218Y00820562D01*
X01026039Y00816333D01*
X01032451Y00813066D01*
X01039295Y00810842D01*
X01046402Y00809717D01*
X01049141Y00809717D01*
X01049141Y00854574D01*
X01050858Y00854574D01*
X01050858Y00809717D01*
X01053598Y00809717D01*
X01060705Y00810842D01*
X01067549Y00813066D01*
X01073961Y00816333D01*
X01074913Y00817025D01*
X01074913Y00795497D01*
X01086345Y00767900D01*
X01101875Y00752370D01*
X00852370Y00752370D01*
X00852370Y01010417D01*
X00849604Y01017095D01*
X00867181Y01034673D01*
X00867181Y01090327D01*
X00827827Y01129681D01*
X00808370Y01129681D01*
X00808370Y01134307D01*
X00874913Y01200851D01*
X00874913Y01199889D02*
X00873952Y01199889D01*
X00874913Y01183891D02*
X00857953Y01183891D01*
X00841955Y01167892D02*
X00874913Y01167892D01*
X00874913Y01151894D02*
X00825956Y01151894D01*
X00809958Y01135895D02*
X00874913Y01135895D01*
X00880463Y01119897D02*
X00837612Y01119897D01*
X00853610Y01103898D02*
X00878446Y01103898D01*
X00874913Y01087900D02*
X00867181Y01087900D01*
X00867181Y01071901D02*
X00874913Y01071901D01*
X00878888Y01055903D02*
X00867181Y01055903D01*
X00867181Y01039904D02*
X00885514Y01039904D01*
X00882592Y01023906D02*
X00856414Y01023906D01*
X00852370Y01007907D02*
X00875965Y01007907D01*
X00874913Y00991908D02*
X00852370Y00991908D01*
X00852370Y00975910D02*
X00874913Y00975910D01*
X00881369Y00959911D02*
X00852370Y00959911D01*
X00852370Y00943913D02*
X00887291Y00943913D01*
X00880110Y00927914D02*
X00852370Y00927914D01*
X00852370Y00911916D02*
X00874913Y00911916D01*
X00874913Y00895917D02*
X00852370Y00895917D01*
X00852370Y00879919D02*
X00877224Y00879919D01*
X00883851Y00863920D02*
X00852370Y00863920D01*
X00852370Y00847922D02*
X00896323Y00847922D01*
X00909641Y00831923D02*
X00852370Y00831923D01*
X00852370Y00815925D02*
X00904583Y00815925D01*
X00905378Y00799926D02*
X00852370Y00799926D01*
X00852370Y00783928D02*
X00912748Y00783928D01*
X00932872Y00767929D02*
X00852370Y00767929D01*
X00949141Y00767929D02*
X00950858Y00767929D01*
X00950858Y00783928D02*
X00949141Y00783928D01*
X00949141Y00799926D02*
X00950858Y00799926D01*
X00987251Y00783928D02*
X01079706Y00783928D01*
X01074913Y00799926D02*
X00994622Y00799926D01*
X00995417Y00815925D02*
X01026840Y00815925D01*
X01049141Y00815925D02*
X01050858Y00815925D01*
X01050858Y00831923D02*
X01049141Y00831923D01*
X01049141Y00847922D02*
X01050858Y00847922D01*
X01073160Y00815925D02*
X01074913Y00815925D01*
X01086332Y00767929D02*
X00967128Y00767929D01*
X00990359Y00831923D02*
X01010670Y00831923D01*
X01004903Y00847922D02*
X01003677Y00847922D01*
X01049141Y01036292D02*
X01049141Y01124574D01*
X01050858Y01124574D01*
X01050858Y01079717D01*
X01050858Y01036292D01*
X01049141Y01036292D01*
X01049141Y01039904D02*
X01050858Y01039904D01*
X01050858Y01055903D02*
X01049141Y01055903D01*
X01049141Y01071901D02*
X01050858Y01071901D01*
X01050858Y01087900D02*
X01049141Y01087900D01*
X01049141Y01103898D02*
X01050858Y01103898D01*
X01050858Y01119897D02*
X01049141Y01119897D01*
X01049141Y01126292D02*
X01049141Y01214574D01*
X01050858Y01214574D01*
X01050858Y01169717D01*
X01050858Y01126292D01*
X01049141Y01126292D01*
X01049141Y01135895D02*
X01050858Y01135895D01*
X01050858Y01151894D02*
X01049141Y01151894D01*
X01049141Y01167892D02*
X01050858Y01167892D01*
X01050858Y01183891D02*
X01049141Y01183891D01*
X01049141Y01199889D02*
X01050858Y01199889D01*
X01058000Y01375084D02*
X01069797Y01376413D01*
X01082718Y01379362D01*
X01095228Y01383740D01*
X01107169Y01389490D01*
X01118391Y01396541D01*
X01128753Y01404805D01*
X01138124Y01414176D01*
X01146388Y01424538D01*
X01153439Y01435760D01*
X01159189Y01447701D01*
X01163567Y01460211D01*
X01166516Y01473132D01*
X01167845Y01484929D01*
X01058000Y01484929D01*
X01058000Y01500929D01*
X01167845Y01500929D01*
X01166516Y01512726D01*
X01163567Y01525647D01*
X01159189Y01538157D01*
X01153439Y01550098D01*
X01146388Y01561320D01*
X01138124Y01571682D01*
X01128753Y01581053D01*
X01118391Y01589317D01*
X01107169Y01596368D01*
X01095228Y01602119D01*
X01082718Y01606496D01*
X01069797Y01609445D01*
X01058000Y01610774D01*
X01058000Y01500930D01*
X01042000Y01500930D01*
X01042000Y01610774D01*
X01030203Y01609445D01*
X01017282Y01606496D01*
X01004772Y01602119D01*
X00992831Y01596368D01*
X00981609Y01589317D01*
X00971247Y01581053D01*
X00961876Y01571682D01*
X00953612Y01561320D01*
X00946561Y01550098D01*
X00940810Y01538157D01*
X00936433Y01525647D01*
X00933484Y01512726D01*
X00932155Y01500929D01*
X01041999Y01500929D01*
X01041999Y01484929D01*
X00932155Y01484929D01*
X00933484Y01473132D01*
X00936433Y01460211D01*
X00940810Y01447701D01*
X00946561Y01435760D01*
X00953612Y01424538D01*
X00961876Y01414176D01*
X00971247Y01404805D01*
X00981609Y01396541D01*
X00992831Y01389490D01*
X01004772Y01383740D01*
X01017282Y01379362D01*
X01030203Y01376413D01*
X01042000Y01375084D01*
X01042000Y01484929D01*
X01058000Y01484929D01*
X01058000Y01375084D01*
X01058000Y01375873D02*
X01042000Y01375873D01*
X01034995Y01375873D02*
X00439165Y01375873D01*
X00440488Y01391872D02*
X00989041Y01391872D01*
X00968182Y01407870D02*
X00440488Y01407870D01*
X00440488Y01423869D02*
X00954146Y01423869D01*
X00944583Y01439867D02*
X00440488Y01439867D01*
X00440488Y01455866D02*
X00937953Y01455866D01*
X00933773Y01471864D02*
X00440488Y01471864D01*
X00440381Y01487863D02*
X01041999Y01487863D01*
X01042000Y01503861D02*
X01058000Y01503861D01*
X01058000Y01487863D02*
X01512500Y01487863D01*
X01512500Y01503861D02*
X01167515Y01503861D01*
X01164888Y01519860D02*
X01512500Y01519860D01*
X01512500Y01535858D02*
X01159994Y01535858D01*
X01152334Y01551857D02*
X01512500Y01551857D01*
X01512500Y01567855D02*
X01141176Y01567855D01*
X01125241Y01583854D02*
X01512500Y01583854D01*
X01512500Y01599852D02*
X01099934Y01599852D01*
X01058000Y01599852D02*
X01042000Y01599852D01*
X01042000Y01583854D02*
X01058000Y01583854D01*
X01058000Y01567855D02*
X01042000Y01567855D01*
X01042000Y01551857D02*
X01058000Y01551857D01*
X01058000Y01535858D02*
X01042000Y01535858D01*
X01042000Y01519860D02*
X01058000Y01519860D01*
X01058000Y01471864D02*
X01042000Y01471864D01*
X01042000Y01455866D02*
X01058000Y01455866D01*
X01058000Y01439867D02*
X01042000Y01439867D01*
X01042000Y01423869D02*
X01058000Y01423869D01*
X01058000Y01407870D02*
X01042000Y01407870D01*
X01042000Y01391872D02*
X01058000Y01391872D01*
X01065004Y01375873D02*
X01512500Y01375873D01*
X01512500Y01391872D02*
X01110959Y01391872D01*
X01131818Y01407870D02*
X01512500Y01407870D01*
X01512500Y01423869D02*
X01145854Y01423869D01*
X01155417Y01439867D02*
X01512500Y01439867D01*
X01512500Y01455866D02*
X01162046Y01455866D01*
X01166227Y01471864D02*
X01512500Y01471864D01*
X01512500Y01615851D02*
X00420542Y01615851D01*
X00434629Y01599852D02*
X01000066Y01599852D01*
X00974759Y01583854D02*
X00440488Y01583854D01*
X00440488Y01567855D02*
X00958824Y01567855D01*
X00947666Y01551857D02*
X00440488Y01551857D01*
X00440488Y01535858D02*
X00940006Y01535858D01*
X00935112Y01519860D02*
X00440488Y01519860D01*
X00440488Y01503861D02*
X00932485Y01503861D01*
X00807655Y01679845D02*
X00000000Y01679845D01*
X00000000Y01695844D02*
X00791656Y01695844D01*
X00775658Y01711842D02*
X00000000Y01711842D01*
X00000000Y01727841D02*
X00759659Y01727841D01*
X00743661Y01743839D02*
X00000000Y01743839D01*
X00000000Y01759838D02*
X00727662Y01759838D01*
X00711664Y01775836D02*
X00000000Y01775836D01*
X00000000Y01791835D02*
X00695665Y01791835D01*
X00679667Y01807833D02*
X00000000Y01807833D01*
X00000000Y01823832D02*
X00663668Y01823832D01*
X00647670Y01839830D02*
X00000000Y01839830D01*
X00000000Y01855829D02*
X00631671Y01855829D01*
X00615673Y01871827D02*
X00000000Y01871827D01*
X00000000Y01887826D02*
X00599674Y01887826D01*
X00583676Y01903824D02*
X00000000Y01903824D01*
X00000000Y01919823D02*
X00567677Y01919823D01*
X00551679Y01935821D02*
X00000000Y01935821D01*
X00000000Y01951820D02*
X00535680Y01951820D01*
X00519682Y01967818D02*
X00000000Y01967818D01*
X00000000Y01663846D02*
X01512500Y01663846D01*
X01512500Y01647848D02*
X00000000Y01647848D01*
X00000000Y01631849D02*
X01512500Y01631849D01*
X00747630Y00911916D02*
X00665870Y00911916D01*
X00665870Y00895917D02*
X00747630Y00895917D01*
X00747630Y00879919D02*
X00665870Y00879919D01*
X00665870Y00863920D02*
X00747630Y00863920D01*
X00747630Y00847922D02*
X00665870Y00847922D01*
X00665870Y00831923D02*
X00747630Y00831923D01*
X00747630Y00815925D02*
X00665870Y00815925D01*
X00665870Y00799926D02*
X00747630Y00799926D01*
X00747630Y00783928D02*
X00665870Y00783928D01*
X00665870Y00767929D02*
X00747630Y00767929D01*
X00747630Y00751931D02*
X00665870Y00751931D01*
X00665870Y00735932D02*
X00747630Y00735932D01*
X00747630Y00719934D02*
X00665870Y00719934D01*
X00665870Y00703935D02*
X00747630Y00703935D01*
X00748312Y00687937D02*
X00665870Y00687937D01*
X00665870Y00671938D02*
X00754938Y00671938D01*
X00665870Y00623942D02*
X01024723Y00623942D01*
X00986191Y00607944D02*
X00665870Y00607944D01*
X00509130Y00617181D02*
X00472173Y00617181D01*
X00458362Y00603370D01*
X00440488Y00603370D01*
X00440488Y00604210D01*
X00438113Y00609945D01*
X00440488Y00615680D01*
X00440488Y00713265D01*
X00433276Y00730675D01*
X00419951Y00744001D01*
X00411118Y00747660D01*
X00411118Y00765528D01*
X00204268Y00765528D01*
X00204268Y00781527D01*
X00411118Y00781527D01*
X00411118Y00799395D01*
X00419951Y00803054D01*
X00433276Y00816380D01*
X00440488Y00833790D01*
X00440488Y00889630D01*
X00509130Y00889630D01*
X00509130Y00617181D01*
X00509130Y00623942D02*
X00440488Y00623942D01*
X00440488Y00639941D02*
X00509130Y00639941D01*
X00509130Y00655939D02*
X00440488Y00655939D01*
X00440488Y00671938D02*
X00509130Y00671938D01*
X00509130Y00687937D02*
X00440488Y00687937D01*
X00440488Y00703935D02*
X00509130Y00703935D01*
X00509130Y00719934D02*
X00437726Y00719934D01*
X00428020Y00735932D02*
X00509130Y00735932D01*
X00509130Y00751931D02*
X00411118Y00751931D01*
X00411118Y00783928D02*
X00509130Y00783928D01*
X00509130Y00799926D02*
X00412399Y00799926D01*
X00432822Y00815925D02*
X00509130Y00815925D01*
X00509130Y00831923D02*
X00439715Y00831923D01*
X00440488Y00847922D02*
X00509130Y00847922D01*
X00509130Y00863920D02*
X00440488Y00863920D01*
X00440488Y00879919D02*
X00509130Y00879919D01*
X00509130Y00767929D02*
X00204268Y00767929D01*
X00438941Y00607944D02*
X00462936Y00607944D01*
X00720999Y00927914D02*
X00721000Y00927914D01*
X00613642Y01247885D02*
X00610788Y01247885D01*
X00599093Y01263883D02*
X00633630Y01263883D01*
X00636720Y01279882D02*
X00583095Y01279882D01*
X00566197Y01295880D02*
X00646889Y01295880D01*
X00878063Y00591945D02*
X00966391Y00591945D01*
X00952908Y00575947D02*
X00894061Y00575947D01*
X00904681Y00559948D02*
X00943721Y00559948D01*
X00937327Y00543950D02*
X00904681Y00543950D01*
D17*
X00837500Y00537500D02*
X00692126Y00392126D01*
X00562500Y00487500D02*
X00525000Y00450000D01*
X00199906Y00450000D01*
X00196268Y00446362D01*
X00201685Y00550000D02*
X00196268Y00555417D01*
X00201685Y00550000D02*
X00500000Y00550000D01*
X00562500Y00487500D02*
X00562500Y01225000D01*
X00537500Y01250000D01*
X00479000Y01250000D01*
X00612500Y01175000D02*
X00612500Y00550000D01*
X00721000Y01050000D02*
X00787500Y01050000D01*
X00800000Y01062500D01*
X00721000Y01200000D02*
X00637500Y01200000D01*
X00612500Y01175000D01*
D18*
X00721000Y01150000D02*
X00750000Y01150000D01*
X00900000Y01300000D01*
X01200000Y01300000D01*
X01300000Y01200000D01*
X01300000Y01100000D01*
X01200000Y01000000D01*
X01159567Y01000000D01*
X01150000Y00990433D01*
X01150000Y00900433D02*
X01150433Y00900000D01*
X01300000Y00900000D01*
X01300000Y00700000D01*
X00800000Y00700000D01*
X00800000Y01000000D01*
X00721000Y01000000D01*
X00721000Y01050000D02*
X00721000Y01100000D01*
X00721000Y01200000D02*
X00721000Y01250000D01*
M02*
