G75*
%MOIN*%
%OFA0B0*%
%FSLAX26Y26*%
%IPPOS*%
%LPD*%
%AMOC8*
5,1,8,0,0,1.08239X$1,22.5*
%
%ADD10R,0.393701X0.078740*%
%ADD11C,0.007000*%
%ADD12C,0.055433*%
%ADD13R,0.055433X0.055433*%
%ADD14C,0.200000*%
%ADD15OC8,0.039622*%
%ADD16C,0.016000*%
%ADD17C,0.010000*%
%ADD18C,0.012000*%
D10*
X00196850Y00392126D03*
X00196850Y00501181D03*
X00196850Y00610236D03*
X00196850Y00719291D03*
X00196850Y00828346D03*
X00196850Y00937402D03*
X00196850Y01046457D03*
X00196850Y01155512D03*
X00196850Y01264567D03*
X00196850Y01373622D03*
X00196850Y01482677D03*
X00196850Y01591732D03*
D11*
X-00484602Y01588416D02*
X-00484602Y01619943D01*
X-00495111Y01630452D01*
X-00537147Y01630452D01*
X-00547656Y01619943D01*
X-00547656Y01588416D01*
X-00484602Y01588416D01*
X-00484602Y01652871D02*
X-00547656Y01652871D01*
X-00547656Y01684398D01*
X-00537147Y01694907D01*
X-00516129Y01694907D01*
X-00505620Y01684398D01*
X-00505620Y01652871D01*
X-00505620Y01673889D02*
X-00484602Y01694907D01*
X-00484602Y01717326D02*
X-00484602Y01738344D01*
X-00484602Y01727835D02*
X-00547656Y01727835D01*
X-00547656Y01717326D02*
X-00547656Y01738344D01*
X-00547656Y01760296D02*
X-00505620Y01760296D01*
X-00484602Y01781314D01*
X-00505620Y01802332D01*
X-00547656Y01802332D01*
X-00547656Y01824751D02*
X-00484602Y01824751D01*
X-00484602Y01866787D01*
X-00516129Y01845769D02*
X-00516129Y01824751D01*
X-00547656Y01824751D02*
X-00547656Y01866787D01*
X-00547656Y01501542D02*
X-00505620Y01459506D01*
X-00516129Y01470015D02*
X-00484602Y01501542D01*
X-00484602Y01459506D02*
X-00547656Y01459506D01*
X-00537147Y01437087D02*
X-00547656Y01426578D01*
X-00547656Y01405560D01*
X-00537147Y01395051D01*
X-00526638Y01395051D01*
X-00516129Y01405560D01*
X-00516129Y01426578D01*
X-00505620Y01437087D01*
X-00495111Y01437087D01*
X-00484602Y01426578D01*
X-00484602Y01405560D01*
X-00495111Y01395051D01*
X-00484602Y01373099D02*
X-00484602Y01352081D01*
X-00484602Y01362590D02*
X-00547656Y01362590D01*
X-00547656Y01352081D02*
X-00547656Y01373099D01*
X-00537147Y01329662D02*
X-00547656Y01319153D01*
X-00547656Y01287626D01*
X-00484602Y01287626D01*
X-00484602Y01319153D01*
X-00495111Y01329662D01*
X-00537147Y01329662D01*
X01568793Y01255687D02*
X01568793Y01213651D01*
X01631846Y01213651D01*
X01621337Y01191232D02*
X01600320Y01191232D01*
X01589811Y01180723D01*
X01589811Y01170214D01*
X01600320Y01149196D01*
X01568793Y01149196D01*
X01568793Y01191232D01*
X01600320Y01213651D02*
X01600320Y01234669D01*
X01621337Y01191232D02*
X01631846Y01180723D01*
X01631846Y01159705D01*
X01621337Y01149196D01*
X01631846Y01126777D02*
X01631846Y01084741D01*
X01631846Y01105759D02*
X01568793Y01105759D01*
X01589811Y01084741D01*
X01568793Y01062322D02*
X01568793Y01020286D01*
X01631846Y01020286D01*
X01631846Y01062322D01*
X01600320Y01041304D02*
X01600320Y01020286D01*
X01621337Y00997867D02*
X01579302Y00997867D01*
X01568793Y00987358D01*
X01568793Y00955831D01*
X01631846Y00955831D01*
X01631846Y00987358D01*
X01621337Y00997867D01*
D12*
X01150000Y00990433D03*
X01150000Y00900433D03*
X01150000Y00810433D03*
X01050000Y00855433D03*
X01050000Y00945433D03*
X01050000Y01035433D03*
X01050000Y01125433D03*
X01150000Y01080433D03*
X01150000Y01170433D03*
X01050000Y01215433D03*
X00950000Y01080433D03*
X00950000Y00990433D03*
X00950000Y00900433D03*
X00950000Y00810433D03*
D13*
X00950000Y01170433D03*
D14*
X01050000Y01492929D03*
X01050000Y00508677D03*
D15*
X00837500Y00537500D03*
X00692126Y00392126D03*
X00612500Y00550000D03*
X00500000Y00550000D03*
X00462500Y00762500D03*
X00725000Y00837500D03*
X00800000Y01062500D03*
D16*
X00525000Y00000000D02*
X00000000Y00000000D01*
X00000000Y00305386D01*
X00403123Y00305386D01*
X00420534Y00312597D01*
X00433859Y00325923D01*
X00439175Y00338756D01*
X00650488Y00338756D01*
X00664299Y00324945D01*
X00719953Y00324945D01*
X00759307Y00364299D01*
X00759307Y00419953D01*
X00719953Y00459307D01*
X00664299Y00459307D01*
X00650488Y00445496D01*
X00439175Y00445496D01*
X00438695Y00446654D01*
X00441071Y00452388D01*
X00441071Y00513921D01*
X00472173Y00482819D01*
X00527827Y00482819D01*
X00541638Y00496630D01*
X00570862Y00496630D01*
X00584673Y00482819D01*
X00640327Y00482819D01*
X00679681Y00522173D01*
X00679681Y00577827D01*
X00640327Y00617181D01*
X00584673Y00617181D01*
X00570862Y00603370D01*
X00541638Y00603370D01*
X00527827Y00617181D01*
X00472173Y00617181D01*
X00441071Y00586079D01*
X00441071Y00659029D01*
X00438695Y00664764D01*
X00441071Y00670499D01*
X00441071Y00768084D01*
X00438695Y00773819D01*
X00441071Y00779554D01*
X00441071Y00877139D01*
X00438695Y00882874D01*
X00441071Y00888609D01*
X00441071Y00986194D01*
X00438695Y00991929D01*
X00441071Y00997664D01*
X00441071Y01095249D01*
X00438695Y01100984D01*
X00439589Y01103142D01*
X00745633Y01103142D01*
X00732819Y01090327D01*
X00732819Y01034673D01*
X00772173Y00995319D01*
X00784130Y00995319D01*
X00784130Y00579138D01*
X00770319Y00565327D01*
X00770319Y00509673D01*
X00809673Y00470319D01*
X00865327Y00470319D01*
X00904681Y00509673D01*
X00904681Y00565327D01*
X00890870Y00579138D01*
X00890870Y00853375D01*
X00907467Y00836778D01*
X00911437Y00835133D01*
X00910900Y00834394D01*
X00907633Y00827982D01*
X00905409Y00821138D01*
X00904283Y00814031D01*
X00904283Y00811291D01*
X00949141Y00811291D01*
X00949141Y00809575D01*
X00904283Y00809575D01*
X00904283Y00806835D01*
X00905409Y00799728D01*
X00907633Y00792884D01*
X00910900Y00786472D01*
X00915129Y00780651D01*
X00920218Y00775562D01*
X00926039Y00771333D01*
X00932451Y00768066D01*
X00939295Y00765842D01*
X00946402Y00764717D01*
X00949141Y00764717D01*
X00949141Y00809574D01*
X00950858Y00809574D01*
X00950858Y00764717D01*
X00953598Y00764717D01*
X00960705Y00765842D01*
X00967549Y00768066D01*
X00973961Y00771333D01*
X00979782Y00775562D01*
X00984871Y00780651D01*
X00989100Y00786472D01*
X00992367Y00792884D01*
X00994591Y00799728D01*
X00995716Y00806835D01*
X00995716Y00809575D01*
X00950859Y00809575D01*
X00950859Y00811291D01*
X00995716Y00811291D01*
X00995716Y00814031D01*
X00994591Y00821138D01*
X00992367Y00827982D01*
X00989100Y00834394D01*
X00988563Y00835133D01*
X00992533Y00836778D01*
X01004736Y00848980D01*
X01005409Y00844728D01*
X01007633Y00837884D01*
X01010900Y00831472D01*
X01015129Y00825651D01*
X01020218Y00820562D01*
X01026039Y00816333D01*
X01032451Y00813066D01*
X01039295Y00810842D01*
X01046402Y00809717D01*
X01049141Y00809717D01*
X01049141Y00854574D01*
X01050858Y00854574D01*
X01050858Y00809717D01*
X01053598Y00809717D01*
X01060705Y00810842D01*
X01067549Y00813066D01*
X01073961Y00816333D01*
X01074913Y00817025D01*
X01074913Y00795497D01*
X01086345Y00767900D01*
X01107467Y00746778D01*
X01135064Y00735346D01*
X01164936Y00735346D01*
X01192533Y00746778D01*
X01213655Y00767900D01*
X01225086Y00795497D01*
X01225086Y00825369D01*
X01213655Y00852966D01*
X01211188Y00855433D01*
X01213655Y00857900D01*
X01225086Y00885497D01*
X01225086Y00915369D01*
X01213655Y00942966D01*
X01211188Y00945433D01*
X01213655Y00947900D01*
X01225086Y00975497D01*
X01225086Y01005369D01*
X01213655Y01032966D01*
X01211188Y01035433D01*
X01213655Y01037900D01*
X01225086Y01065497D01*
X01225086Y01095369D01*
X01213655Y01122966D01*
X01211188Y01125433D01*
X01213655Y01127900D01*
X01225086Y01155497D01*
X01225086Y01185369D01*
X01213655Y01212966D01*
X01192533Y01234088D01*
X01164936Y01245520D01*
X01135064Y01245520D01*
X01107467Y01234088D01*
X01095264Y01221886D01*
X01094591Y01226138D01*
X01092367Y01232982D01*
X01089100Y01239394D01*
X01084871Y01245215D01*
X01079782Y01250304D01*
X01073961Y01254533D01*
X01067549Y01257800D01*
X01060705Y01260024D01*
X01053598Y01261149D01*
X01050858Y01261149D01*
X01050858Y01216292D01*
X01049141Y01216292D01*
X01049141Y01261149D01*
X01046402Y01261149D01*
X01039295Y01260024D01*
X01032451Y01257800D01*
X01026039Y01254533D01*
X01020218Y01250304D01*
X01015129Y01245215D01*
X01010900Y01239394D01*
X01008390Y01234468D01*
X01004549Y01238308D01*
X00987139Y01245520D01*
X00948976Y01245520D01*
X00776476Y01418019D01*
X00757228Y01425992D01*
X00439589Y01425992D01*
X00438695Y01428150D01*
X00441071Y01433884D01*
X00441071Y01531470D01*
X00438695Y01537205D01*
X00441071Y01542940D01*
X00441071Y01640525D01*
X00433859Y01657935D01*
X00420534Y01671261D01*
X00403123Y01678472D01*
X00000000Y01678472D01*
X00000000Y01975000D01*
X00512500Y01975000D01*
X00812500Y01675000D01*
X01500000Y01675000D01*
X01500000Y00312500D01*
X00850000Y00312500D01*
X00537500Y00012500D01*
X00525000Y00000000D01*
X00000000Y00000000D01*
X00000000Y00015999D02*
X00541144Y00015999D01*
X00557809Y00031997D02*
X00000000Y00031997D01*
X00000000Y00047996D02*
X00574475Y00047996D01*
X00591140Y00063994D02*
X00000000Y00063994D01*
X00000000Y00079993D02*
X00607805Y00079993D01*
X00624470Y00095991D02*
X00000000Y00095991D01*
X00000000Y00111990D02*
X00641135Y00111990D01*
X00657800Y00127988D02*
X00000000Y00127988D01*
X00000000Y00143987D02*
X00674465Y00143987D01*
X00691131Y00159985D02*
X00000000Y00159985D01*
X00000000Y00175984D02*
X00707796Y00175984D01*
X00724461Y00191982D02*
X00000000Y00191982D01*
X00000000Y00207981D02*
X00741126Y00207981D01*
X00757791Y00223979D02*
X00000000Y00223979D01*
X00000000Y00239978D02*
X00774456Y00239978D01*
X00791121Y00255976D02*
X00000000Y00255976D01*
X00000000Y00271975D02*
X00807786Y00271975D01*
X00824452Y00287973D02*
X00000000Y00287973D01*
X00000000Y00303972D02*
X00841117Y00303972D01*
X00759307Y00367966D02*
X01500000Y00367966D01*
X01500000Y00383965D02*
X00759307Y00383965D01*
X00759307Y00399963D02*
X01003785Y00399963D01*
X01004772Y00399488D02*
X01017282Y00395110D01*
X01030203Y00392161D01*
X01042000Y00390832D01*
X01042000Y00500677D01*
X01058000Y00500677D01*
X01058000Y00516677D01*
X01167845Y00516677D01*
X01166516Y00528474D01*
X01163567Y00541395D01*
X01159189Y00553905D01*
X01153439Y00565846D01*
X01146388Y00577068D01*
X01138124Y00587430D01*
X01128753Y00596801D01*
X01118391Y00605065D01*
X01107169Y00612116D01*
X01095228Y00617867D01*
X01082718Y00622244D01*
X01069797Y00625193D01*
X01058000Y00626522D01*
X01058000Y00516678D01*
X01042000Y00516678D01*
X01042000Y00626522D01*
X01030203Y00625193D01*
X01017282Y00622244D01*
X01004772Y00617867D01*
X00992831Y00612116D01*
X00981609Y00605065D01*
X00971247Y00596801D01*
X00961876Y00587430D01*
X00953612Y00577068D01*
X00946561Y00565846D01*
X00940810Y00553905D01*
X00936433Y00541395D01*
X00933484Y00528474D01*
X00932155Y00516677D01*
X01041999Y00516677D01*
X01041999Y00500677D01*
X00932155Y00500677D01*
X00933484Y00488880D01*
X00936433Y00475959D01*
X00940810Y00463449D01*
X00946561Y00451508D01*
X00953612Y00440286D01*
X00961876Y00429924D01*
X00971247Y00420553D01*
X00981609Y00412289D01*
X00992831Y00405238D01*
X01004772Y00399488D01*
X00977004Y00415962D02*
X00759307Y00415962D01*
X00747300Y00431960D02*
X00960252Y00431960D01*
X00948791Y00447959D02*
X00731302Y00447959D01*
X00784037Y00495954D02*
X00653463Y00495954D01*
X00669461Y00511953D02*
X00770319Y00511953D01*
X00770319Y00527951D02*
X00679681Y00527951D01*
X00679681Y00543950D02*
X00770319Y00543950D01*
X00770319Y00559948D02*
X00679681Y00559948D01*
X00679681Y00575947D02*
X00780938Y00575947D01*
X00784130Y00591945D02*
X00665563Y00591945D01*
X00649564Y00607944D02*
X00784130Y00607944D01*
X00784130Y00623942D02*
X00441071Y00623942D01*
X00441071Y00607944D02*
X00462936Y00607944D01*
X00446937Y00591945D02*
X00441071Y00591945D01*
X00441071Y00639941D02*
X00784130Y00639941D01*
X00784130Y00655939D02*
X00441071Y00655939D01*
X00441071Y00671938D02*
X00784130Y00671938D01*
X00784130Y00687937D02*
X00441071Y00687937D01*
X00441071Y00703935D02*
X00784130Y00703935D01*
X00784130Y00719934D02*
X00441071Y00719934D01*
X00441071Y00735932D02*
X00784130Y00735932D01*
X00784130Y00751931D02*
X00441071Y00751931D01*
X00441071Y00767929D02*
X00784130Y00767929D01*
X00784130Y00783928D02*
X00441071Y00783928D01*
X00441071Y00799926D02*
X00784130Y00799926D01*
X00784130Y00815925D02*
X00441071Y00815925D01*
X00441071Y00831923D02*
X00784130Y00831923D01*
X00784130Y00847922D02*
X00441071Y00847922D01*
X00441071Y00863920D02*
X00784130Y00863920D01*
X00784130Y00879919D02*
X00439919Y00879919D01*
X00441071Y00895917D02*
X00784130Y00895917D01*
X00784130Y00911916D02*
X00441071Y00911916D01*
X00441071Y00927914D02*
X00784130Y00927914D01*
X00784130Y00943913D02*
X00441071Y00943913D01*
X00441071Y00959911D02*
X00784130Y00959911D01*
X00784130Y00975910D02*
X00441071Y00975910D01*
X00438704Y00991908D02*
X00784130Y00991908D01*
X00759585Y01007907D02*
X00441071Y01007907D01*
X00441071Y01023906D02*
X00743586Y01023906D01*
X00732819Y01039904D02*
X00441071Y01039904D01*
X00441071Y01055903D02*
X00732819Y01055903D01*
X00732819Y01071901D02*
X00441071Y01071901D01*
X00441071Y01087900D02*
X00732819Y01087900D01*
X00930612Y01263883D02*
X01500000Y01263883D01*
X01500000Y01247885D02*
X01082201Y01247885D01*
X01092723Y01231886D02*
X01105265Y01231886D01*
X01050858Y01231886D02*
X01049141Y01231886D01*
X01049141Y01247885D02*
X01050858Y01247885D01*
X01050858Y01214574D02*
X01050858Y01169717D01*
X01050858Y01126292D01*
X01049141Y01126292D01*
X01049141Y01214574D01*
X01050858Y01214574D01*
X01050858Y01199889D02*
X01049141Y01199889D01*
X01049141Y01183891D02*
X01050858Y01183891D01*
X01050858Y01167892D02*
X01049141Y01167892D01*
X01049141Y01151894D02*
X01050858Y01151894D01*
X01050858Y01135895D02*
X01049141Y01135895D01*
X01049141Y01124574D02*
X01050858Y01124574D01*
X01050858Y01079717D01*
X01050858Y01036292D01*
X01049141Y01036292D01*
X01049141Y01124574D01*
X01049141Y01119897D02*
X01050858Y01119897D01*
X01050858Y01103898D02*
X01049141Y01103898D01*
X01049141Y01087900D02*
X01050858Y01087900D01*
X01050858Y01071901D02*
X01049141Y01071901D01*
X01049141Y01055903D02*
X01050858Y01055903D01*
X01050858Y01039904D02*
X01049141Y01039904D01*
X01214485Y01039904D02*
X01500000Y01039904D01*
X01500000Y01023906D02*
X01217408Y01023906D01*
X01224035Y01007907D02*
X01500000Y01007907D01*
X01500000Y00991908D02*
X01225086Y00991908D01*
X01225086Y00975910D02*
X01500000Y00975910D01*
X01500000Y00959911D02*
X01218631Y00959911D01*
X01212709Y00943913D02*
X01500000Y00943913D01*
X01500000Y00927914D02*
X01219890Y00927914D01*
X01225086Y00911916D02*
X01500000Y00911916D01*
X01500000Y00895917D02*
X01225086Y00895917D01*
X01222776Y00879919D02*
X01500000Y00879919D01*
X01500000Y00863920D02*
X01216149Y00863920D01*
X01215745Y00847922D02*
X01500000Y00847922D01*
X01500000Y00831923D02*
X01222372Y00831923D01*
X01225086Y00815925D02*
X01500000Y00815925D01*
X01500000Y00799926D02*
X01225086Y00799926D01*
X01220294Y00783928D02*
X01500000Y00783928D01*
X01500000Y00767929D02*
X01213667Y00767929D01*
X01197686Y00751931D02*
X01500000Y00751931D01*
X01500000Y00735932D02*
X01166349Y00735932D01*
X01133650Y00735932D02*
X00890870Y00735932D01*
X00890870Y00719934D02*
X01500000Y00719934D01*
X01500000Y00703935D02*
X00890870Y00703935D01*
X00890870Y00687937D02*
X01500000Y00687937D01*
X01500000Y00671938D02*
X00890870Y00671938D01*
X00890870Y00655939D02*
X01500000Y00655939D01*
X01500000Y00639941D02*
X00890870Y00639941D01*
X00890870Y00623942D02*
X01024723Y00623942D01*
X01042000Y00623942D02*
X01058000Y00623942D01*
X01058000Y00607944D02*
X01042000Y00607944D01*
X01042000Y00591945D02*
X01058000Y00591945D01*
X01058000Y00575947D02*
X01042000Y00575947D01*
X01042000Y00559948D02*
X01058000Y00559948D01*
X01058000Y00543950D02*
X01042000Y00543950D01*
X01042000Y00527951D02*
X01058000Y00527951D01*
X01058000Y00511953D02*
X01500000Y00511953D01*
X01500000Y00527951D02*
X01166575Y00527951D01*
X01162673Y00543950D02*
X01500000Y00543950D01*
X01500000Y00559948D02*
X01156279Y00559948D01*
X01147092Y00575947D02*
X01500000Y00575947D01*
X01500000Y00591945D02*
X01133609Y00591945D01*
X01113809Y00607944D02*
X01500000Y00607944D01*
X01500000Y00623942D02*
X01075277Y00623942D01*
X00986191Y00607944D02*
X00890870Y00607944D01*
X00890870Y00591945D02*
X00966391Y00591945D01*
X00952908Y00575947D02*
X00894061Y00575947D01*
X00904681Y00559948D02*
X00943721Y00559948D01*
X00937327Y00543950D02*
X00904681Y00543950D01*
X00904681Y00527951D02*
X00933425Y00527951D01*
X00932687Y00495954D02*
X00890963Y00495954D01*
X00904681Y00511953D02*
X01041999Y00511953D01*
X01042000Y00495954D02*
X01058000Y00495954D01*
X01058000Y00500677D02*
X01058000Y00390832D01*
X01069797Y00392161D01*
X01082718Y00395110D01*
X01095228Y00399488D01*
X01107169Y00405238D01*
X01118391Y00412289D01*
X01128753Y00420553D01*
X01138124Y00429924D01*
X01146388Y00440286D01*
X01153439Y00451508D01*
X01159189Y00463449D01*
X01163567Y00475959D01*
X01166516Y00488880D01*
X01167845Y00500677D01*
X01058000Y00500677D01*
X01058000Y00479956D02*
X01042000Y00479956D01*
X01042000Y00463957D02*
X01058000Y00463957D01*
X01058000Y00447959D02*
X01042000Y00447959D01*
X01042000Y00431960D02*
X01058000Y00431960D01*
X01058000Y00415962D02*
X01042000Y00415962D01*
X01042000Y00399963D02*
X01058000Y00399963D01*
X01096215Y00399963D02*
X01500000Y00399963D01*
X01500000Y00415962D02*
X01122996Y00415962D01*
X01139748Y00431960D02*
X01500000Y00431960D01*
X01500000Y00447959D02*
X01151209Y00447959D01*
X01159367Y00463957D02*
X01500000Y00463957D01*
X01500000Y00479956D02*
X01164479Y00479956D01*
X01167313Y00495954D02*
X01500000Y00495954D01*
X01500000Y00351968D02*
X00746976Y00351968D01*
X00730977Y00335969D02*
X01500000Y00335969D01*
X01500000Y00319970D02*
X00427907Y00319970D01*
X00438020Y00335969D02*
X00653274Y00335969D01*
X00652950Y00447959D02*
X00439236Y00447959D01*
X00441071Y00463957D02*
X00940633Y00463957D01*
X00935521Y00479956D02*
X00874964Y00479956D01*
X00800036Y00479956D02*
X00441071Y00479956D01*
X00441071Y00495954D02*
X00459037Y00495954D01*
X00443039Y00511953D02*
X00441071Y00511953D01*
X00537064Y00607944D02*
X00575436Y00607944D01*
X00571537Y00495954D02*
X00540963Y00495954D01*
X00890870Y00751931D02*
X01102314Y00751931D01*
X01086332Y00767929D02*
X00967128Y00767929D01*
X00950858Y00767929D02*
X00949141Y00767929D01*
X00949141Y00783928D02*
X00950858Y00783928D01*
X00950858Y00799926D02*
X00949141Y00799926D01*
X00912748Y00783928D02*
X00890870Y00783928D01*
X00890870Y00799926D02*
X00905378Y00799926D01*
X00904583Y00815925D02*
X00890870Y00815925D01*
X00890870Y00831923D02*
X00909641Y00831923D01*
X00896323Y00847922D02*
X00890870Y00847922D01*
X00890870Y00767929D02*
X00932872Y00767929D01*
X00987251Y00783928D02*
X01079706Y00783928D01*
X01074913Y00799926D02*
X00994622Y00799926D01*
X00995417Y00815925D02*
X01026840Y00815925D01*
X01049141Y00815925D02*
X01050858Y00815925D01*
X01050858Y00831923D02*
X01049141Y00831923D01*
X01049141Y00847922D02*
X01050858Y00847922D01*
X01073160Y00815925D02*
X01074913Y00815925D01*
X01010670Y00831923D02*
X00990359Y00831923D01*
X01003677Y00847922D02*
X01004903Y00847922D01*
X01221112Y01055903D02*
X01500000Y01055903D01*
X01500000Y01071901D02*
X01225086Y01071901D01*
X01225086Y01087900D02*
X01500000Y01087900D01*
X01500000Y01103898D02*
X01221554Y01103898D01*
X01214927Y01119897D02*
X01500000Y01119897D01*
X01500000Y01135895D02*
X01216967Y01135895D01*
X01223594Y01151894D02*
X01500000Y01151894D01*
X01500000Y01167892D02*
X01225086Y01167892D01*
X01225086Y01183891D02*
X01500000Y01183891D01*
X01500000Y01199889D02*
X01219072Y01199889D01*
X01210734Y01215888D02*
X01500000Y01215888D01*
X01500000Y01231886D02*
X01194735Y01231886D01*
X01069797Y01376413D02*
X01058000Y01375084D01*
X01058000Y01484929D01*
X01058000Y01500929D01*
X01167845Y01500929D01*
X01166516Y01512726D01*
X01163567Y01525647D01*
X01159189Y01538157D01*
X01153439Y01550098D01*
X01146388Y01561320D01*
X01138124Y01571682D01*
X01128753Y01581053D01*
X01118391Y01589317D01*
X01107169Y01596368D01*
X01095228Y01602119D01*
X01082718Y01606496D01*
X01069797Y01609445D01*
X01058000Y01610774D01*
X01058000Y01500930D01*
X01042000Y01500930D01*
X01042000Y01610774D01*
X01030203Y01609445D01*
X01017282Y01606496D01*
X01004772Y01602119D01*
X00992831Y01596368D01*
X00981609Y01589317D01*
X00971247Y01581053D01*
X00961876Y01571682D01*
X00953612Y01561320D01*
X00946561Y01550098D01*
X00940810Y01538157D01*
X00936433Y01525647D01*
X00933484Y01512726D01*
X00932155Y01500929D01*
X01041999Y01500929D01*
X01041999Y01484929D01*
X00932155Y01484929D01*
X00933484Y01473132D01*
X00936433Y01460211D01*
X00940810Y01447701D01*
X00946561Y01435760D01*
X00953612Y01424538D01*
X00961876Y01414176D01*
X00971247Y01404805D01*
X00981609Y01396541D01*
X00992831Y01389490D01*
X01004772Y01383740D01*
X01017282Y01379362D01*
X01030203Y01376413D01*
X01042000Y01375084D01*
X01042000Y01484929D01*
X01058000Y01484929D01*
X01167845Y01484929D01*
X01166516Y01473132D01*
X01163567Y01460211D01*
X01159189Y01447701D01*
X01153439Y01435760D01*
X01146388Y01424538D01*
X01138124Y01414176D01*
X01128753Y01404805D01*
X01118391Y01396541D01*
X01107169Y01389490D01*
X01095228Y01383740D01*
X01082718Y01379362D01*
X01069797Y01376413D01*
X01065004Y01375873D02*
X01500000Y01375873D01*
X01500000Y01359875D02*
X00834621Y01359875D01*
X00818622Y01375873D02*
X01034995Y01375873D01*
X01042000Y01375873D02*
X01058000Y01375873D01*
X01058000Y01391872D02*
X01042000Y01391872D01*
X01042000Y01407870D02*
X01058000Y01407870D01*
X01058000Y01423869D02*
X01042000Y01423869D01*
X01042000Y01439867D02*
X01058000Y01439867D01*
X01058000Y01455866D02*
X01042000Y01455866D01*
X01042000Y01471864D02*
X01058000Y01471864D01*
X01058000Y01487863D02*
X01500000Y01487863D01*
X01500000Y01503861D02*
X01167515Y01503861D01*
X01164888Y01519860D02*
X01500000Y01519860D01*
X01500000Y01535858D02*
X01159994Y01535858D01*
X01152334Y01551857D02*
X01500000Y01551857D01*
X01500000Y01567855D02*
X01141176Y01567855D01*
X01125241Y01583854D02*
X01500000Y01583854D01*
X01500000Y01599852D02*
X01099934Y01599852D01*
X01058000Y01599852D02*
X01042000Y01599852D01*
X01042000Y01583854D02*
X01058000Y01583854D01*
X01058000Y01567855D02*
X01042000Y01567855D01*
X01042000Y01551857D02*
X01058000Y01551857D01*
X01058000Y01535858D02*
X01042000Y01535858D01*
X01042000Y01519860D02*
X01058000Y01519860D01*
X01058000Y01503861D02*
X01042000Y01503861D01*
X01041999Y01487863D02*
X00441071Y01487863D01*
X00441071Y01503861D02*
X00932485Y01503861D01*
X00935112Y01519860D02*
X00441071Y01519860D01*
X00439253Y01535858D02*
X00940006Y01535858D01*
X00947666Y01551857D02*
X00441071Y01551857D01*
X00441071Y01567855D02*
X00958824Y01567855D01*
X00974759Y01583854D02*
X00441071Y01583854D01*
X00441071Y01599852D02*
X01000066Y01599852D01*
X00933773Y01471864D02*
X00441071Y01471864D01*
X00441071Y01455866D02*
X00937953Y01455866D01*
X00944583Y01439867D02*
X00441071Y01439867D01*
X00441071Y01615851D02*
X01500000Y01615851D01*
X01500000Y01631849D02*
X00441071Y01631849D01*
X00438038Y01647848D02*
X01500000Y01647848D01*
X01500000Y01663846D02*
X00427948Y01663846D01*
X00631671Y01855829D02*
X00000000Y01855829D01*
X00000000Y01871827D02*
X00615673Y01871827D01*
X00599674Y01887826D02*
X00000000Y01887826D01*
X00000000Y01903824D02*
X00583676Y01903824D01*
X00567677Y01919823D02*
X00000000Y01919823D01*
X00000000Y01935821D02*
X00551679Y01935821D01*
X00535680Y01951820D02*
X00000000Y01951820D01*
X00000000Y01967818D02*
X00519682Y01967818D01*
X00647670Y01839830D02*
X00000000Y01839830D01*
X00000000Y01823832D02*
X00663668Y01823832D01*
X00679667Y01807833D02*
X00000000Y01807833D01*
X00000000Y01791835D02*
X00695665Y01791835D01*
X00711664Y01775836D02*
X00000000Y01775836D01*
X00000000Y01759838D02*
X00727662Y01759838D01*
X00743661Y01743839D02*
X00000000Y01743839D01*
X00000000Y01727841D02*
X00759659Y01727841D01*
X00775658Y01711842D02*
X00000000Y01711842D01*
X00000000Y01695844D02*
X00791656Y01695844D01*
X00807655Y01679845D02*
X00000000Y01679845D01*
X00762355Y01423869D02*
X00954146Y01423869D01*
X00968182Y01407870D02*
X00786625Y01407870D01*
X00802624Y01391872D02*
X00989041Y01391872D01*
X00898615Y01295880D02*
X01500000Y01295880D01*
X01500000Y01279882D02*
X00914614Y01279882D01*
X00882617Y01311879D02*
X01500000Y01311879D01*
X01500000Y01327877D02*
X00866618Y01327877D01*
X00850619Y01343876D02*
X01500000Y01343876D01*
X01500000Y01391872D02*
X01110959Y01391872D01*
X01131818Y01407870D02*
X01500000Y01407870D01*
X01500000Y01423869D02*
X01145854Y01423869D01*
X01155417Y01439867D02*
X01500000Y01439867D01*
X01500000Y01455866D02*
X01162046Y01455866D01*
X01166227Y01471864D02*
X01500000Y01471864D01*
X01017799Y01247885D02*
X00946611Y01247885D01*
D17*
X00950000Y01170433D02*
X00746811Y01373622D01*
X00196850Y01373622D01*
X00196850Y01264567D02*
X00765866Y01264567D01*
X00950000Y01080433D01*
X00950000Y00990433D02*
X00784921Y01155512D01*
X00196850Y01155512D01*
D18*
X00800000Y01062500D02*
X00837500Y01025000D01*
X00837500Y00537500D01*
X00692126Y00392126D02*
X00675000Y00392126D01*
X00196850Y00392126D01*
X00500000Y00550000D02*
X00612500Y00550000D01*
M02*
